<svg width="150" height="48" viewBox="0 0 150 48" fill="none" xmlns="http://www.w3.org/2000/svg">
<path d="M1.826 21.795V6.39498H4.774L11.33 17.263H9.768L16.214 6.39498H19.14L19.184 21.795H15.84L15.818 11.521H16.434L11.286 20.167H9.68L4.422 11.521H5.17V21.795H1.826ZM29.8557 21.795V19.485L29.6357 18.979V14.843C29.6357 14.1096 29.4084 13.5376 28.9537 13.127C28.5137 12.7163 27.8317 12.511 26.9077 12.511C26.2771 12.511 25.6537 12.6136 25.0377 12.819C24.4364 13.0096 23.9231 13.2736 23.4977 13.611L22.2657 11.213C22.9111 10.7583 23.6884 10.4063 24.5977 10.157C25.5071 9.90765 26.4311 9.78298 27.3697 9.78298C29.1737 9.78298 30.5744 10.2083 31.5717 11.059C32.5691 11.9096 33.0677 13.237 33.0677 15.041V21.795H29.8557ZM26.2477 21.971C25.3237 21.971 24.5317 21.817 23.8717 21.509C23.2117 21.1863 22.7057 20.7536 22.3537 20.211C22.0017 19.6683 21.8257 19.0596 21.8257 18.385C21.8257 17.681 21.9944 17.065 22.3317 16.537C22.6837 16.009 23.2337 15.5983 23.9817 15.305C24.7297 14.997 25.7051 14.843 26.9077 14.843H30.0537V16.845H27.2817C26.4751 16.845 25.9177 16.977 25.6097 17.241C25.3164 17.505 25.1697 17.835 25.1697 18.231C25.1697 18.671 25.3384 19.023 25.6757 19.287C26.0277 19.5363 26.5044 19.661 27.1057 19.661C27.6777 19.661 28.1911 19.529 28.6457 19.265C29.1004 18.9863 29.4304 18.583 29.6357 18.055L30.1637 19.639C29.9144 20.4016 29.4597 20.981 28.7997 21.377C28.1397 21.773 27.2891 21.971 26.2477 21.971ZM41.8258 26.239C40.7111 26.239 39.6331 26.0996 38.5918 25.821C37.5651 25.557 36.7071 25.1536 36.0178 24.611L37.3818 22.147C37.8804 22.5576 38.5111 22.8803 39.2738 23.115C40.0511 23.3643 40.8138 23.489 41.5618 23.489C42.7791 23.489 43.6591 23.2176 44.2018 22.675C44.7591 22.1323 45.0378 21.3256 45.0378 20.255V18.473L45.2578 15.503L45.2138 12.511V9.95898H48.4698V19.815C48.4698 22.015 47.8978 23.6356 46.7538 24.677C45.6098 25.7183 43.9671 26.239 41.8258 26.239ZM41.2978 21.223C40.1978 21.223 39.2004 20.9883 38.3058 20.519C37.4258 20.035 36.7144 19.3676 36.1718 18.517C35.6438 17.6516 35.3798 16.647 35.3798 15.503C35.3798 14.3443 35.6438 13.3396 36.1718 12.489C36.7144 11.6236 37.4258 10.9563 38.3058 10.487C39.2004 10.0176 40.1978 9.78298 41.2978 9.78298C42.2951 9.78298 43.1751 9.98832 43.9378 10.399C44.7004 10.795 45.2944 11.4183 45.7198 12.269C46.1451 13.105 46.3578 14.183 46.3578 15.503C46.3578 16.8083 46.1451 17.8863 45.7198 18.737C45.2944 19.573 44.7004 20.1963 43.9378 20.607C43.1751 21.0176 42.2951 21.223 41.2978 21.223ZM41.9798 18.407C42.5811 18.407 43.1164 18.2896 43.5858 18.055C44.0551 17.8056 44.4218 17.461 44.6858 17.021C44.9498 16.581 45.0818 16.075 45.0818 15.503C45.0818 14.9163 44.9498 14.4103 44.6858 13.985C44.4218 13.545 44.0551 13.2076 43.5858 12.973C43.1164 12.7236 42.5811 12.599 41.9798 12.599C41.3784 12.599 40.8431 12.7236 40.3738 12.973C39.9044 13.2076 39.5304 13.545 39.2518 13.985C38.9878 14.4103 38.8558 14.9163 38.8558 15.503C38.8558 16.075 38.9878 16.581 39.2518 17.021C39.5304 17.461 39.9044 17.8056 40.3738 18.055C40.8431 18.2896 41.3784 18.407 41.9798 18.407ZM51.6641 21.795V9.95898H55.0961V21.795H51.6641ZM53.3801 8.30898C52.7494 8.30898 52.2361 8.12565 51.8401 7.75898C51.4441 7.39232 51.2461 6.93765 51.2461 6.39498C51.2461 5.85232 51.4441 5.39765 51.8401 5.03098C52.2361 4.66432 52.7494 4.48098 53.3801 4.48098C54.0107 4.48098 54.5241 4.65698 54.9201 5.00898C55.3161 5.34632 55.5141 5.78632 55.5141 6.32898C55.5141 6.90098 55.3161 7.37765 54.9201 7.75898C54.5387 8.12565 54.0254 8.30898 53.3801 8.30898ZM64.0013 21.971C62.7253 21.971 61.5886 21.7143 60.5913 21.201C59.5939 20.673 58.8093 19.947 58.2373 19.023C57.6799 18.099 57.4013 17.0503 57.4013 15.877C57.4013 14.689 57.6799 13.6403 58.2373 12.731C58.8093 11.807 59.5939 11.0883 60.5913 10.575C61.5886 10.047 62.7253 9.78298 64.0013 9.78298C65.2479 9.78298 66.3333 10.047 67.2573 10.575C68.1813 11.0883 68.8633 11.829 69.3033 12.797L66.6413 14.227C66.3333 13.6696 65.9446 13.259 65.4753 12.995C65.0206 12.731 64.5219 12.599 63.9793 12.599C63.3926 12.599 62.8646 12.731 62.3953 12.995C61.9259 13.259 61.5519 13.633 61.2733 14.117C61.0093 14.601 60.8773 15.1876 60.8773 15.877C60.8773 16.5663 61.0093 17.153 61.2733 17.637C61.5519 18.121 61.9259 18.495 62.3953 18.759C62.8646 19.023 63.3926 19.155 63.9793 19.155C64.5219 19.155 65.0206 19.0303 65.4753 18.781C65.9446 18.517 66.3333 18.099 66.6413 17.527L69.3033 18.979C68.8633 19.9323 68.1813 20.673 67.2573 21.201C66.3333 21.7143 65.2479 21.971 64.0013 21.971Z" fill="black"/>
<path d="M86.4373 9.78298C87.376 9.78298 88.2046 9.97365 88.9233 10.355C89.6566 10.7216 90.2286 11.2936 90.6393 12.071C91.0646 12.8336 91.2773 13.8163 91.2773 15.019V21.795H87.8453V15.547C87.8453 14.5936 87.6473 13.8896 87.2513 13.435C86.8553 12.9803 86.298 12.753 85.5793 12.753C85.0806 12.753 84.6333 12.8703 84.2373 13.105C83.8413 13.325 83.5333 13.6623 83.3133 14.117C83.0933 14.5716 82.9833 15.151 82.9833 15.855V21.795H79.5513V15.547C79.5513 14.5936 79.3533 13.8896 78.9573 13.435C78.576 12.9803 78.026 12.753 77.3073 12.753C76.8086 12.753 76.3613 12.8703 75.9653 13.105C75.5693 13.325 75.2613 13.6623 75.0413 14.117C74.8213 14.5716 74.7113 15.151 74.7113 15.855V21.795H71.2793V9.95898H74.5573V13.193L73.9413 12.247C74.352 11.4403 74.9313 10.8316 75.6793 10.421C76.442 9.99565 77.3073 9.78298 78.2753 9.78298C79.3606 9.78298 80.3066 10.0616 81.1133 10.619C81.9346 11.1616 82.4773 11.9976 82.7413 13.127L81.5313 12.797C81.9273 11.873 82.558 11.1396 83.4233 10.597C84.3033 10.0543 85.308 9.78298 86.4373 9.78298ZM100.071 21.971C98.8101 21.971 97.6881 21.707 96.7055 21.179C95.7375 20.651 94.9675 19.9323 94.3955 19.023C93.8381 18.099 93.5595 17.0503 93.5595 15.877C93.5595 14.689 93.8381 13.6403 94.3955 12.731C94.9675 11.807 95.7375 11.0883 96.7055 10.575C97.6881 10.047 98.8101 9.78298 100.071 9.78298C101.318 9.78298 102.433 10.047 103.415 10.575C104.398 11.0883 105.168 11.7996 105.725 12.709C106.283 13.6183 106.561 14.6743 106.561 15.877C106.561 17.0503 106.283 18.099 105.725 19.023C105.168 19.9323 104.398 20.651 103.415 21.179C102.433 21.707 101.318 21.971 100.071 21.971ZM100.071 19.155C100.643 19.155 101.157 19.023 101.611 18.759C102.066 18.495 102.425 18.121 102.689 17.637C102.953 17.1383 103.085 16.5516 103.085 15.877C103.085 15.1876 102.953 14.601 102.689 14.117C102.425 13.633 102.066 13.259 101.611 12.995C101.157 12.731 100.643 12.599 100.071 12.599C99.4995 12.599 98.9861 12.731 98.5315 12.995C98.0768 13.259 97.7101 13.633 97.4315 14.117C97.1675 14.601 97.0355 15.1876 97.0355 15.877C97.0355 16.5516 97.1675 17.1383 97.4315 17.637C97.7101 18.121 98.0768 18.495 98.5315 18.759C98.9861 19.023 99.4995 19.155 100.071 19.155ZM115.851 21.971C114.81 21.971 113.915 21.751 113.167 21.311C112.419 20.871 111.847 20.2036 111.451 19.309C111.055 18.3996 110.857 17.2556 110.857 15.877C110.857 14.4836 111.063 13.3396 111.473 12.445C111.899 11.5503 112.485 10.883 113.233 10.443C113.981 10.003 114.854 9.78298 115.851 9.78298C116.966 9.78298 117.963 10.0323 118.843 10.531C119.738 11.0296 120.442 11.7336 120.955 12.643C121.483 13.5523 121.747 14.6303 121.747 15.877C121.747 17.109 121.483 18.1796 120.955 19.089C120.442 19.9983 119.738 20.7096 118.843 21.223C117.963 21.7216 116.966 21.971 115.851 21.971ZM108.855 21.795V5.47098H112.287V12.357L112.067 15.855L112.133 19.375V21.795H108.855ZM115.257 19.155C115.829 19.155 116.335 19.023 116.775 18.759C117.23 18.495 117.589 18.121 117.853 17.637C118.132 17.1383 118.271 16.5516 118.271 15.877C118.271 15.1876 118.132 14.601 117.853 14.117C117.589 13.633 117.23 13.259 116.775 12.995C116.335 12.731 115.829 12.599 115.257 12.599C114.685 12.599 114.172 12.731 113.717 12.995C113.263 13.259 112.903 13.633 112.639 14.117C112.375 14.601 112.243 15.1876 112.243 15.877C112.243 16.5516 112.375 17.1383 112.639 17.637C112.903 18.121 113.263 18.495 113.717 18.759C114.172 19.023 114.685 19.155 115.257 19.155ZM124.045 21.795V9.95898H127.477V21.795H124.045ZM125.761 8.30898C125.13 8.30898 124.617 8.12565 124.221 7.75898C123.825 7.39232 123.627 6.93765 123.627 6.39498C123.627 5.85232 123.825 5.39765 124.221 5.03098C124.617 4.66432 125.13 4.48098 125.761 4.48098C126.392 4.48098 126.905 4.65698 127.301 5.00898C127.697 5.34632 127.895 5.78632 127.895 6.32898C127.895 6.90098 127.697 7.37765 127.301 7.75898C126.92 8.12565 126.406 8.30898 125.761 8.30898ZM130.662 21.795V5.47098H134.094V21.795H130.662ZM143.153 21.971C141.804 21.971 140.616 21.707 139.589 21.179C138.577 20.651 137.793 19.9323 137.235 19.023C136.678 18.099 136.399 17.0503 136.399 15.877C136.399 14.689 136.671 13.6403 137.213 12.731C137.771 11.807 138.526 11.0883 139.479 10.575C140.433 10.047 141.511 9.78298 142.713 9.78298C143.872 9.78298 144.913 10.0323 145.837 10.531C146.776 11.015 147.517 11.719 148.059 12.643C148.602 13.5523 148.873 14.645 148.873 15.921C148.873 16.053 148.866 16.207 148.851 16.383C148.837 16.5443 148.822 16.6983 148.807 16.845H139.193V14.843H147.003L145.683 15.437C145.683 14.821 145.559 14.2856 145.309 13.831C145.06 13.3763 144.715 13.0243 144.275 12.775C143.835 12.511 143.322 12.379 142.735 12.379C142.149 12.379 141.628 12.511 141.173 12.775C140.733 13.0243 140.389 13.3836 140.139 13.853C139.89 14.3076 139.765 14.8503 139.765 15.481V16.009C139.765 16.6543 139.905 17.2263 140.183 17.725C140.477 18.209 140.88 18.583 141.393 18.847C141.921 19.0963 142.537 19.221 143.241 19.221C143.872 19.221 144.422 19.1256 144.891 18.935C145.375 18.7443 145.815 18.4583 146.211 18.077L148.037 20.057C147.495 20.673 146.813 21.1496 145.991 21.487C145.17 21.8096 144.224 21.971 143.153 21.971Z" fill="#6354EB"/>
<path d="M4.896 43.843C4.128 43.843 3.43467 43.667 2.816 43.315C2.208 42.9523 1.72267 42.4563 1.36 41.827C1.008 41.187 0.832 40.4563 0.832 39.635C0.832 38.803 1.008 38.0776 1.36 37.459C1.72267 36.8296 2.208 36.3336 2.816 35.971C3.43467 35.6083 4.128 35.427 4.896 35.427C5.64267 35.427 6.31467 35.603 6.912 35.955C7.50933 36.307 7.97867 36.7976 8.32 37.427C8.672 38.0563 8.848 38.7923 8.848 39.635C8.848 40.467 8.672 41.203 8.32 41.843C7.97867 42.483 7.50933 42.979 6.912 43.331C6.31467 43.6723 5.64267 43.843 4.896 43.843ZM4.912 43.363C5.59467 43.363 6.20267 43.2083 6.736 42.899C7.26933 42.579 7.69067 42.1363 8 41.571C8.30933 41.0056 8.464 40.3603 8.464 39.635C8.464 38.899 8.30933 38.2536 8 37.699C7.69067 37.1336 7.26933 36.6963 6.736 36.387C6.20267 36.0776 5.59467 35.923 4.912 35.923C4.24 35.923 3.63733 36.0776 3.104 36.387C2.57067 36.6963 2.144 37.1336 1.824 37.699C1.51467 38.2536 1.36 38.899 1.36 39.635C1.36 40.3603 1.51467 41.0056 1.824 41.571C2.144 42.1363 2.57067 42.579 3.104 42.899C3.63733 43.2083 4.24 43.363 4.912 43.363ZM8.48 43.795V40.883L8.624 39.619L8.464 38.355V31.923H8.992V43.795H8.48ZM15.8056 43.843C14.9843 43.843 14.259 43.667 13.6296 43.315C13.0003 42.9523 12.5043 42.451 12.1416 41.811C11.779 41.171 11.5976 40.4456 11.5976 39.635C11.5976 38.8136 11.763 38.0883 12.0936 37.459C12.435 36.8296 12.899 36.3336 13.4856 35.971C14.083 35.6083 14.755 35.427 15.5016 35.427C16.2376 35.427 16.899 35.603 17.4856 35.955C18.083 36.307 18.547 36.7976 18.8776 37.427C19.219 38.0456 19.3896 38.7603 19.3896 39.571C19.3896 39.5923 19.3896 39.619 19.3896 39.651C19.3896 39.6723 19.3896 39.6936 19.3896 39.715H11.9496V39.283H19.1016L18.8936 39.539C18.8936 38.8456 18.7443 38.227 18.4456 37.683C18.1576 37.1283 17.7576 36.6963 17.2456 36.387C16.7336 36.067 16.1523 35.907 15.5016 35.907C14.851 35.907 14.2696 36.067 13.7576 36.387C13.2456 36.6963 12.8403 37.1283 12.5416 37.683C12.2536 38.227 12.1096 38.851 12.1096 39.555V39.651C12.1096 40.3763 12.2696 41.0216 12.5896 41.587C12.9096 42.1416 13.347 42.579 13.9016 42.899C14.4563 43.2083 15.091 43.363 15.8056 43.363C16.3496 43.363 16.8616 43.2616 17.3416 43.059C17.8323 42.8563 18.2376 42.547 18.5576 42.131L18.8936 42.483C18.5203 42.931 18.0616 43.2723 17.5176 43.507C16.9843 43.731 16.4136 43.843 15.8056 43.843ZM24.2508 43.843C23.5681 43.843 23.0454 43.651 22.6828 43.267C22.3201 42.883 22.1388 42.3656 22.1388 41.715V33.667H22.6668V41.635C22.6668 42.2003 22.8054 42.6323 23.0828 42.931C23.3601 43.2296 23.7654 43.379 24.2988 43.379C24.8428 43.379 25.2908 43.2136 25.6428 42.883L25.9148 43.267C25.7121 43.459 25.4614 43.603 25.1628 43.699C24.8641 43.795 24.5601 43.843 24.2508 43.843ZM20.5708 35.955V35.491H25.4028V35.955H20.5708ZM33.5404 43.795V41.859L33.5244 41.571V38.419C33.5244 37.5976 33.3057 36.9736 32.8684 36.547C32.431 36.1203 31.7964 35.907 30.9644 35.907C30.3564 35.907 29.8017 36.0136 29.3004 36.227C28.799 36.4296 28.367 36.6963 28.0044 37.027L27.7164 36.643C28.111 36.2696 28.5964 35.9763 29.1724 35.763C29.7484 35.539 30.351 35.427 30.9804 35.427C31.9724 35.427 32.7297 35.683 33.2524 36.195C33.7857 36.6963 34.0524 37.4376 34.0524 38.419V43.795H33.5404ZM30.4524 43.843C29.823 43.843 29.2844 43.747 28.8364 43.555C28.399 43.363 28.063 43.091 27.8284 42.739C27.5937 42.3763 27.4764 41.9656 27.4764 41.507C27.4764 41.1016 27.5724 40.7283 27.7644 40.387C27.9564 40.035 28.271 39.7576 28.7084 39.555C29.1564 39.3416 29.7537 39.235 30.5004 39.235H33.7164V39.667H30.5004C29.5937 39.667 28.9484 39.8376 28.5644 40.179C28.191 40.5203 28.0044 40.9523 28.0044 41.475C28.0044 42.0616 28.223 42.531 28.6604 42.883C29.0977 43.2243 29.7057 43.395 30.4844 43.395C31.2524 43.395 31.887 43.2243 32.3884 42.883C32.8897 42.531 33.2684 42.035 33.5244 41.395L33.7004 41.747C33.487 42.3763 33.103 42.883 32.5484 43.267C31.9937 43.651 31.295 43.843 30.4524 43.843ZM37.5104 43.795V35.491H38.0384V43.795H37.5104ZM37.7664 33.315C37.6277 33.315 37.505 33.2616 37.3984 33.155C37.2917 33.0483 37.2384 32.931 37.2384 32.803C37.2384 32.6536 37.2917 32.531 37.3984 32.435C37.505 32.3283 37.6277 32.275 37.7664 32.275C37.9157 32.275 38.0384 32.3283 38.1344 32.435C38.241 32.531 38.2944 32.6483 38.2944 32.787C38.2944 32.9256 38.241 33.0483 38.1344 33.155C38.0384 33.2616 37.9157 33.315 37.7664 33.315ZM41.5885 43.795V31.923H42.1165V43.795H41.5885ZM45.6666 43.795V35.491H46.1946V43.795H45.6666ZM45.9226 33.315C45.784 33.315 45.6613 33.2616 45.5546 33.155C45.448 33.0483 45.3946 32.931 45.3946 32.803C45.3946 32.6536 45.448 32.531 45.5546 32.435C45.6613 32.3283 45.784 32.275 45.9226 32.275C46.072 32.275 46.1946 32.3283 46.2906 32.435C46.3973 32.531 46.4506 32.6483 46.4506 32.787C46.4506 32.9256 46.3973 33.0483 46.2906 33.155C46.1946 33.2616 46.072 33.315 45.9226 33.315ZM53.6648 35.427C54.3474 35.427 54.9341 35.5603 55.4248 35.827C55.9261 36.0936 56.3154 36.4883 56.5928 37.011C56.8701 37.523 57.0087 38.1576 57.0087 38.915V43.795H56.4808V38.947C56.4808 37.955 56.2301 37.203 55.7288 36.691C55.2274 36.179 54.5234 35.923 53.6168 35.923C52.9234 35.923 52.3261 36.0616 51.8248 36.339C51.3234 36.6163 50.9394 37.011 50.6728 37.523C50.4061 38.035 50.2728 38.6323 50.2728 39.315V43.795H49.7448V35.491H50.2568V37.827L50.1928 37.683C50.4488 36.9896 50.8701 36.4403 51.4568 36.035C52.0541 35.6296 52.7901 35.427 53.6648 35.427ZM63.8555 46.947C63.1088 46.947 62.3995 46.8243 61.7275 46.579C61.0662 46.3443 60.5328 46.019 60.1275 45.603L60.4315 45.203C60.8582 45.6083 61.3648 45.9176 61.9515 46.131C62.5382 46.355 63.1675 46.467 63.8395 46.467C65.0022 46.467 65.8608 46.1896 66.4155 45.635C66.9702 45.091 67.2475 44.2323 67.2475 43.059V40.547L67.4075 39.459L67.2635 38.371V35.491H67.7755V42.995C67.7755 44.3496 67.4502 45.347 66.7995 45.987C66.1488 46.627 65.1675 46.947 63.8555 46.947ZM63.6315 43.507C62.8528 43.507 62.1542 43.3363 61.5355 42.995C60.9168 42.643 60.4262 42.163 60.0635 41.555C59.7008 40.947 59.5195 40.2483 59.5195 39.459C59.5195 38.6696 59.7008 37.971 60.0635 37.363C60.4262 36.755 60.9168 36.2803 61.5355 35.939C62.1542 35.5976 62.8528 35.427 63.6315 35.427C64.3995 35.427 65.0822 35.5976 65.6795 35.939C66.2768 36.2696 66.7515 36.739 67.1035 37.347C67.4555 37.9443 67.6315 38.6483 67.6315 39.459C67.6315 40.2696 67.4555 40.979 67.1035 41.587C66.7515 42.195 66.2768 42.6696 65.6795 43.011C65.0822 43.3416 64.3995 43.507 63.6315 43.507ZM63.6475 43.027C64.3515 43.027 64.9702 42.8776 65.5035 42.579C66.0475 42.2803 66.4742 41.859 66.7835 41.315C67.0928 40.771 67.2475 40.1523 67.2475 39.459C67.2475 38.755 67.0928 38.1416 66.7835 37.619C66.4742 37.0856 66.0475 36.6696 65.5035 36.371C64.9702 36.0723 64.3515 35.923 63.6475 35.923C62.9648 35.923 62.3515 36.0723 61.8075 36.371C61.2635 36.6696 60.8315 37.0856 60.5115 37.619C60.2022 38.1416 60.0475 38.755 60.0475 39.459C60.0475 40.1523 60.2022 40.771 60.5115 41.315C60.8315 41.859 61.2635 42.2803 61.8075 42.579C62.3515 42.8776 62.9648 43.027 63.6475 43.027Z" fill="black"/>
</svg>
